<svg width="16" height="16" viewBox="0 0 16 16" fill="none" xmlns="http://www.w3.org/2000/svg">
<path d="M7.44809 11.4123L2.1381 5.83928C2.04945 5.74629 2 5.62275 2 5.49428C2 5.36581 2.04945 5.24227 2.1381 5.14928L2.1441 5.14328C2.18707 5.09805 2.23879 5.06203 2.29613 5.03741C2.35346 5.0128 2.4152 5.00011 2.4776 5.00011C2.53999 5.00011 2.60173 5.0128 2.65906 5.03741C2.7164 5.06203 2.76812 5.09805 2.8111 5.14328L7.8111 10.3913L12.8091 5.14328C12.8521 5.09805 12.9038 5.06203 12.9611 5.03741C13.0185 5.0128 13.0802 5.00011 13.1426 5.00011C13.205 5.00011 13.2667 5.0128 13.3241 5.03741C13.3814 5.06203 13.4331 5.09805 13.4761 5.14328L13.4821 5.14928C13.5707 5.24227 13.6202 5.36581 13.6202 5.49428C13.6202 5.62275 13.5707 5.74629 13.4821 5.83928L8.1721 11.4123C8.1254 11.4613 8.06923 11.5003 8.00701 11.527C7.94478 11.5536 7.87779 11.5674 7.81009 11.5674C7.7424 11.5674 7.67541 11.5536 7.61318 11.527C7.55096 11.5003 7.49479 11.4613 7.44809 11.4123Z" fill="black"/>
</svg>
