<svg width="32" height="32" fill="none" xmlns="http://www.w3.org/2000/svg"><path d="M4 6.667v-1a1 1 0 0 0-1 1h1zm24 0h1a1 1 0 0 0-1-1v1zm-24 1h24v-2H4v2zm23-1v16h2v-16h-2zm-1.667 17.666H6.667v2h18.666v-2zM5 22.667v-16H3v16h2zm1.667 1.666c-.92 0-1.667-.746-1.667-1.666H3a3.666 3.666 0 0 0 3.667 3.666v-2zM27 22.667c0 .92-.747 1.666-1.667 1.666v2A3.667 3.667 0 0 0 29 22.667h-2z" fill="#EF7F1A"/><path d="m4 6.667 12 12 12-12" stroke="#EF7F1A" stroke-width="1.5" stroke-linecap="round" stroke-linejoin="round"/></svg>