<svg width="24" height="24" viewBox="0 0 24 24" fill="none" xmlns="http://www.w3.org/2000/svg">
<path d="M0 5.99967V8.66634H24V5.99967C24 5.29243 23.719 4.61415 23.219 4.11406C22.7189 3.61396 22.0406 3.33301 21.3333 3.33301H2.66667C1.95942 3.33301 1.28115 3.61396 0.781049 4.11406C0.280952 4.61415 0 5.29243 0 5.99967Z" fill="#0099B5"/>
<path d="M24 17.9997V15.333H0V17.9997C0 18.7069 0.280952 19.3852 0.781049 19.8853C1.28115 20.3854 1.95942 20.6663 2.66667 20.6663H21.3333C22.0406 20.6663 22.7189 20.3854 23.219 19.8853C23.719 19.3852 24 18.7069 24 17.9997Z" fill="#1EB53A"/>
<path d="M0 8.66699H24V9.66699H0V8.66699ZM0 14.3337H24V15.3337H0V14.3337Z" fill="#CE1126"/>
<path d="M0 12.0003V14.3337H24V9.66699H0V12.0003Z" fill="#EEEEEE"/>
<path d="M2.80022 6.10637C2.80028 5.61486 2.97439 5.13926 3.29168 4.76388C3.60896 4.38851 4.04893 4.13762 4.53356 4.0557C4.23522 4.00506 3.92942 4.02012 3.6375 4.09984C3.34558 4.17957 3.07457 4.32202 2.84339 4.51728C2.6122 4.71253 2.4264 4.95587 2.29895 5.23033C2.1715 5.50479 2.10547 5.80376 2.10547 6.10637C2.10547 6.40898 2.1715 6.70794 2.29895 6.9824C2.4264 7.25686 2.6122 7.50021 2.84339 7.69546C3.07457 7.89071 3.34558 8.03317 3.6375 8.11289C3.92942 8.19261 4.23522 8.20768 4.53356 8.15703C4.04893 8.07512 3.60896 7.82423 3.29168 7.44885C2.97439 7.07348 2.80028 6.59787 2.80022 6.10637ZM5.92222 7.6417L5.82889 7.35437L5.73556 7.6417H5.43289L5.67756 7.8197L5.58422 8.10703L5.82889 7.92903L6.07289 8.10703L5.97956 7.8197L6.22422 7.6417H5.92222ZM7.72356 7.6417L7.63022 7.35437L7.53689 7.6417H7.23489L7.47956 7.8197L7.38622 8.10703L7.63022 7.92903L7.87489 8.10703L7.78156 7.8197L8.02622 7.6417H7.72356ZM7.63022 5.69037L7.53689 5.9777H7.23489L7.47956 6.1557L7.38622 6.44303L7.63022 6.26503L7.87489 6.44303L7.78156 6.1557L8.02622 5.9777H7.72356L7.63022 5.69037ZM9.52556 7.6417L9.43222 7.35437L9.33889 7.6417H9.03689L9.28089 7.8197L9.18756 8.10703L9.43222 7.92903L9.67689 8.10703L9.58356 7.8197L9.82756 7.6417H9.52556ZM9.43222 5.69037L9.33889 5.9777H9.03689L9.28089 6.1557L9.18756 6.44303L9.43222 6.26503L9.67689 6.44303L9.58356 6.1557L9.82756 5.9777H9.52556L9.43222 5.69037ZM9.43222 4.02637L9.33889 4.3137H9.03689L9.28089 4.4917L9.18756 4.77903L9.43222 4.60103L9.67689 4.77903L9.58356 4.4917L9.82756 4.3137H9.52556L9.43222 4.02637ZM11.3276 7.6417L11.2342 7.35437L11.1409 7.6417H10.8382L11.0829 7.8197L10.9896 8.10703L11.2342 7.92903L11.4782 8.10703L11.3849 7.8197L11.6296 7.6417H11.3276ZM11.2342 5.69037L11.1409 5.9777H10.8382L11.0829 6.1557L10.9896 6.44303L11.2342 6.26503L11.4782 6.44303L11.3849 6.1557L11.6296 5.9777H11.3276L11.2342 5.69037ZM11.2342 4.02637L11.1409 4.3137H10.8382L11.0829 4.4917L10.9896 4.77903L11.2342 4.60103L11.4782 4.77903L11.3849 4.4917L11.6296 4.3137H11.3276L11.2342 4.02637ZM13.1289 7.6417L13.0356 7.35437L12.9422 7.6417H12.6402L12.8849 7.8197L12.7916 8.10703L13.0356 7.92903L13.2802 8.10703L13.1869 7.8197L13.4316 7.6417H13.1289ZM13.0356 5.69037L12.9422 5.9777H12.6402L12.8849 6.1557L12.7916 6.44303L13.0356 6.26503L13.2802 6.44303L13.1869 6.1557L13.4316 5.9777H13.1289L13.0356 5.69037ZM13.0356 4.02637L12.9422 4.3137H12.6402L12.8849 4.4917L12.7916 4.77903L13.0356 4.60103L13.2802 4.77903L13.1869 4.4917L13.4316 4.3137H13.1289L13.0356 4.02637Z" fill="white"/>
</svg>
