<svg width="13" height="24" viewBox="0 0 13 24" fill="none" xmlns="http://www.w3.org/2000/svg">
<path d="M12.6506 2.02351C12.7622 1.90901 12.8495 1.77433 12.9074 1.62714C12.9653 1.47995 12.9927 1.32314 12.9881 1.16567C12.9836 1.0082 12.947 0.853153 12.8806 0.709374C12.8142 0.565596 12.7193 0.435905 12.6012 0.327707C12.4831 0.219508 12.3442 0.134922 12.1924 0.078776C12.0405 0.0226303 11.8788 -0.00397488 11.7164 0.000479721C11.554 0.00493432 11.3941 0.0403613 11.2458 0.104738C11.0975 0.169115 10.9637 0.26118 10.8521 0.375678L0.338109 11.1693C0.120981 11.392 0 11.6868 0 11.9933C0 12.2997 0.120981 12.5945 0.338109 12.8172L10.8521 23.612C10.963 23.729 11.0967 23.8235 11.2456 23.89C11.3944 23.9565 11.5554 23.9936 11.7191 23.9992C11.8829 24.0049 12.0462 23.9789 12.1995 23.9229C12.3528 23.8668 12.4932 23.7818 12.6123 23.6727C12.7314 23.5636 12.827 23.4326 12.8935 23.2874C12.9601 23.1422 12.9961 22.9857 12.9997 22.8268C13.0033 22.668 12.9743 22.51 12.9143 22.3622C12.8544 22.2143 12.7648 22.0794 12.6506 21.9654L2.93817 11.9933L12.6506 2.02351Z" fill="#464646"/>
</svg>
