<svg width="18" height="18" fill="none" xmlns="http://www.w3.org/2000/svg"><path d="M8.802 4.488A4.505 4.505 0 0 0 4.291 9a4.505 4.505 0 0 0 4.511 4.513A4.505 4.505 0 0 0 13.313 9a4.505 4.505 0 0 0-4.511-4.512zm0 7.446A2.939 2.939 0 0 1 5.869 9a2.936 2.936 0 0 1 2.933-2.933A2.936 2.936 0 0 1 11.735 9a2.939 2.939 0 0 1-2.933 2.934zm5.748-7.63a1.05 1.05 0 0 1-1.052 1.052 1.052 1.052 0 1 1 1.052-1.052zm2.988 1.067c-.067-1.41-.389-2.658-1.421-3.687C15.088.654 13.839.333 12.43.262 10.977.18 6.623.18 5.17.262 3.764.329 2.516.651 1.483 1.68.451 2.709.133 3.958.062 5.367c-.083 1.454-.083 5.809 0 7.262.067 1.41.389 2.659 1.421 3.688 1.033 1.029 2.277 1.35 3.687 1.421 1.453.083 5.807.083 7.26 0 1.41-.066 2.658-.389 3.687-1.421 1.028-1.03 1.35-2.278 1.421-3.688.083-1.453.083-5.804 0-7.258zm-1.877 8.817a2.97 2.97 0 0 1-1.672 1.673c-1.159.46-3.907.354-5.187.354-1.28 0-4.032.102-5.187-.354a2.97 2.97 0 0 1-1.672-1.673C1.483 13.03 1.589 10.28 1.589 9c0-1.28-.102-4.033.354-5.188A2.97 2.97 0 0 1 3.615 2.14c1.159-.46 3.907-.353 5.187-.353 1.28 0 4.032-.102 5.187.353.77.307 1.362.9 1.672 1.673.46 1.159.354 3.908.354 5.188 0 1.28.106 4.034-.354 5.188z" fill="#fff"/></svg>