<svg width="35" height="35" fill="none" xmlns="http://www.w3.org/2000/svg"><path d="M12.375 24.625v-14l10.5 14v-14" stroke="#EF7F1A" stroke-width="1.5" stroke-linecap="round" stroke-linejoin="round"/><path d="M13.623 2.995c1.017-.867 1.526-1.3 2.058-1.554a4.51 4.51 0 0 1 3.889 0c.532.253 1.041.687 2.058 1.554 1.048.892 2.112 1.344 3.512 1.454 1.332.107 1.998.16 2.555.357a4.51 4.51 0 0 1 2.75 2.75c.195.556.25 1.222.356 2.556.11 1.4.56 2.462 1.453 3.51.868 1.017 1.302 1.526 1.556 2.058a4.506 4.506 0 0 1 0 3.889c-.254.532-.688 1.041-1.555 2.058a5.785 5.785 0 0 0-1.454 3.512c-.106 1.332-.16 1.999-.357 2.555a4.511 4.511 0 0 1-2.75 2.75c-.555.195-1.222.25-2.556.356-1.4.11-2.462.56-3.51 1.453-1.017.868-1.526 1.302-2.058 1.556a4.51 4.51 0 0 1-3.889 0c-.532-.254-1.041-.688-2.058-1.554a5.786 5.786 0 0 0-3.512-1.455c-1.332-.106-1.998-.16-2.555-.357a4.51 4.51 0 0 1-2.75-2.75c-.195-.555-.25-1.222-.356-2.556a5.784 5.784 0 0 0-1.453-3.51C2.13 20.61 1.695 20.1 1.44 19.569a4.51 4.51 0 0 1 .002-3.889c.253-.532.687-1.04 1.554-2.058.91-1.069 1.345-2.14 1.454-3.512.107-1.332.16-1.998.357-2.555a4.51 4.51 0 0 1 2.75-2.75c.556-.195 1.222-.25 2.556-.356a5.786 5.786 0 0 0 3.51-1.454z" stroke="#EF7F1A" stroke-width="1.5" stroke-linecap="round" stroke-linejoin="round"/></svg>