<svg width="50" height="50" viewBox="0 0 50 50" fill="none" xmlns="http://www.w3.org/2000/svg">
<rect x="0.5" y="0.5" width="49" height="49" rx="9.5" stroke="#EF7F1A"/>
<g clip-path="url(#clip0_112_601)">
<path d="M25.0006 14.9996C23.9368 14.9497 22.8743 15.1225 21.8811 15.5069C20.8879 15.8913 19.9859 16.4788 19.2328 17.2318C18.4798 17.9849 17.8922 18.8869 17.5079 19.8801C17.1235 20.8733 16.9507 21.9358 17.0006 22.9996C17.0006 25.5196 19.0006 27.9996 20.0006 28.9996C21.0006 29.9996 25.0006 34.9996 25.0006 34.9996C25.0006 34.9996 29.0006 29.9996 30.0006 28.9996C31.0006 27.9996 33.0006 25.5196 33.0006 22.9996C33.0505 21.9358 32.8777 20.8733 32.4933 19.8801C32.1089 18.8869 31.5214 17.9849 30.7684 17.2318C30.0153 16.4788 29.1133 15.8913 28.1201 15.5069C27.1269 15.1225 26.0644 14.9497 25.0006 14.9996ZM25.0006 26.2496C24.3578 26.2496 23.7294 26.059 23.195 25.7019C22.6605 25.3448 22.244 24.8372 21.998 24.2433C21.752 23.6495 21.6876 22.996 21.813 22.3656C21.9384 21.7351 22.248 21.156 22.7025 20.7015C23.157 20.247 23.7361 19.9375 24.3665 19.8121C24.997 19.6867 25.6504 19.751 26.2443 19.997C26.8382 20.243 27.3457 20.6595 27.7029 21.194C28.06 21.7285 28.2506 22.3568 28.2506 22.9996C28.2506 23.4264 28.1665 23.849 28.0032 24.2433C27.8399 24.6376 27.6005 24.9959 27.2987 25.2977C26.9969 25.5995 26.6386 25.8389 26.2443 26.0022C25.85 26.1655 25.4274 26.2496 25.0006 26.2496Z" fill="#EF7F1A"/>
</g>
<defs>
<clipPath id="clip0_112_601">
<rect width="20" height="20" fill="white" transform="translate(15 15)"/>
</clipPath>
</defs>
</svg>
