<svg width="39" height="39" viewBox="0 0 39 39" fill="none" xmlns="http://www.w3.org/2000/svg">
<rect x="0.5" y="0.5" width="38" height="38" rx="9.5" stroke="#EF7F1A"/>
<g clip-path="url(#clip0_248_2096)">
<path d="M19.5005 11.6999C18.6707 11.661 17.8419 11.7958 17.0672 12.0956C16.2925 12.3954 15.589 12.8537 15.0016 13.4411C14.4142 14.0284 13.9559 14.732 13.6561 15.5067C13.3563 16.2814 13.2215 17.1101 13.2605 17.9399C13.2605 19.9055 14.8205 21.8399 15.6005 22.6199C16.3805 23.3999 19.5005 27.2999 19.5005 27.2999C19.5005 27.2999 22.6205 23.3999 23.4005 22.6199C24.1805 21.8399 25.7405 19.9055 25.7405 17.9399C25.7794 17.1101 25.6446 16.2814 25.3448 15.5067C25.045 14.732 24.5867 14.0284 23.9993 13.4411C23.4119 12.8537 22.7084 12.3954 21.9337 12.0956C21.159 11.7958 20.3302 11.661 19.5005 11.6999ZM19.5005 20.4749C18.9991 20.4749 18.509 20.3262 18.0921 20.0477C17.6752 19.7691 17.3503 19.3732 17.1584 18.91C16.9666 18.4468 16.9164 17.9371 17.0142 17.4454C17.112 16.9536 17.3534 16.5019 17.7079 16.1474C18.0625 15.7929 18.5142 15.5514 19.0059 15.4536C19.4976 15.3558 20.0074 15.406 20.4706 15.5979C20.9338 15.7897 21.3297 16.1147 21.6082 16.5315C21.8868 16.9484 22.0355 17.4385 22.0355 17.9399C22.0355 18.2728 21.9699 18.6025 21.8425 18.91C21.7151 19.2176 21.5284 19.497 21.293 19.7324C21.0576 19.9678 20.7781 20.1546 20.4706 20.2819C20.163 20.4093 19.8334 20.4749 19.5005 20.4749Z" fill="#EF7F1A"/>
</g>
<defs>
<clipPath id="clip0_248_2096">
<rect width="15.6" height="15.6" fill="white" transform="translate(11.7 11.7002)"/>
</clipPath>
</defs>
</svg>
