<svg width="32" height="25" fill="none" xmlns="http://www.w3.org/2000/svg"><path d="M2.286 11.714H16V14H2.286v-2.286zM0 6h11.429v2.286H0V6z" fill="#EF7F1A"/><path d="m31.906 12.051-3.478-7.954a1.141 1.141 0 0 0-.427-.5 1.175 1.175 0 0 0-.638-.188h-3.478V1.136c0-.301-.122-.59-.34-.803a1.171 1.171 0 0 0-.82-.333H4.178v2.273h17.39v14.266c-.529.301-.991.701-1.361 1.178-.37.476-.64 1.02-.794 1.6h-7.285a4.547 4.547 0 0 0-1.887-2.626 4.71 4.71 0 0 0-3.187-.747 4.667 4.667 0 0 0-2.895 1.504A4.493 4.493 0 0 0 3 20.453c0 1.106.412 2.174 1.158 3.004a4.667 4.667 0 0 0 2.895 1.504 4.712 4.712 0 0 0 3.187-.747 4.548 4.548 0 0 0 1.887-2.625h7.285c.253.975.83 1.84 1.64 2.458.81.618 1.806.953 2.833.953a4.674 4.674 0 0 0 2.833-.953 4.516 4.516 0 0 0 1.64-2.458h2.483c.307 0 .602-.12.82-.333.217-.213.339-.502.339-.803v-7.954c0-.154-.032-.306-.094-.448zM7.655 22.725c-.459 0-.907-.133-1.289-.383a2.283 2.283 0 0 1-.854-1.02 2.23 2.23 0 0 1-.131-1.313c.089-.44.31-.846.634-1.163a2.333 2.333 0 0 1 1.187-.622c.45-.088.916-.043 1.34.129a2.31 2.31 0 0 1 1.04.837c.255.374.391.813.391 1.263 0 .602-.245 1.18-.68 1.606a2.345 2.345 0 0 1-1.638.666zm16.23-17.044h2.713l2.485 5.682h-5.198V5.68zm0 17.044c-.459 0-.907-.133-1.288-.383a2.283 2.283 0 0 1-.854-1.02 2.231 2.231 0 0 1-.132-1.313c.09-.44.31-.846.634-1.163a2.333 2.333 0 0 1 1.188-.622c.45-.088.916-.043 1.34.129a2.31 2.31 0 0 1 1.04.837c.255.374.39.813.39 1.263 0 .602-.245 1.18-.68 1.606a2.345 2.345 0 0 1-1.638.666zm5.796-3.409h-1.323a4.534 4.534 0 0 0-1.643-2.453 4.691 4.691 0 0 0-2.83-.955v-2.273h5.796v5.681z" fill="#EF7F1A"/></svg>