<svg width="18" height="18" viewBox="0 0 18 18" fill="none" xmlns="http://www.w3.org/2000/svg">
<path d="M9 0C13.968 0 18 4.032 18 9C18 13.968 13.968 18 9 18C4.032 18 0 13.968 0 9C0 4.032 4.032 0 9 0ZM9 1.8C5.022 1.8 1.8 5.022 1.8 9C1.8 12.978 5.022 16.2 9 16.2C12.978 16.2 16.2 12.978 16.2 9C16.2 5.022 12.978 1.8 9 1.8ZM9 4.5C10.638 4.5 12.0717 5.3757 12.8592 6.6852L11.3166 7.6113C11.0738 7.20652 10.7292 6.87245 10.3171 6.6424C9.90491 6.41235 9.43967 6.29437 8.9677 6.30021C8.49574 6.30605 8.03356 6.43551 7.62723 6.67568C7.22091 6.91585 6.88464 7.25835 6.65196 7.66901C6.41929 8.07967 6.29833 8.54416 6.30115 9.01615C6.30398 9.48814 6.43048 9.95114 6.66805 10.359C6.90562 10.7668 7.24596 11.1053 7.65513 11.3406C8.0643 11.5759 8.528 11.6998 9 11.7C9.46632 11.7003 9.92476 11.5797 10.3306 11.3501C10.7365 11.1204 11.0759 10.7895 11.3157 10.3896L12.8592 11.3148C12.3534 12.1596 11.5845 12.8151 10.6703 13.1808C9.75618 13.5466 8.7473 13.6023 7.79841 13.3396C6.84952 13.0768 6.01303 12.51 5.41722 11.7261C4.82142 10.9423 4.49921 9.9846 4.5 9C4.5 6.516 6.516 4.5 9 4.5Z" fill="black"/>
</svg>
